<?xml version="1.0" encoding="UTF-8"?>
<svg xmlns="http://www.w3.org/2000/svg" version="1.1" viewBox="0 0 1080 1080">
  <defs>
    <style>
      .cls-1, .cls-2 {
        fill: #f2f0eb;
      }

      .cls-2 {
        font-family: ClassyVogueRegular, 'Classy Vogue';
        font-size: 456.51px;
      }
    </style>
  </defs>
  <!-- Generator: Adobe Illustrator 28.7.2, SVG Export Plug-In . SVG Version: 1.2.0 Build 154)  -->
  <g>
    <g id="negro">
      <g id="SILK">
        <text class="cls-2" transform="translate(78.61 700.23)"><tspan x="0" y="0">SILK</tspan></text>
        <path class="cls-1" d="M995.31,672.9c3.53,0,6.45,1.17,8.78,3.52,2.32,2.34,3.49,5.26,3.49,8.75s-1.16,6.46-3.49,8.78c-2.33,2.33-5.25,3.49-8.78,3.49s-6.4-1.16-8.75-3.49c-2.35-2.32-3.52-5.25-3.52-8.78s1.17-6.4,3.52-8.75c2.34-2.35,5.26-3.52,8.75-3.52ZM988.67,691.97c1.79,1.81,4,2.71,6.64,2.71s4.85-.91,6.64-2.71c1.78-1.81,2.68-4.08,2.68-6.8s-.9-4.93-2.68-6.74c-1.79-1.81-4-2.71-6.64-2.71s-4.85.9-6.64,2.71c-1.79,1.81-2.68,4.06-2.68,6.74s.89,4.99,2.68,6.8ZM999.98,690.9c.12.22.31.36.57.42v.18h-1.64c-.21.02-.37-.07-.5-.27l-3.44-5.75h-1.84l.02,5.31c0,.1.02.18.05.25.02.07.06.14.12.19.06.05.14.08.24.08v.18h-2.34v-.18c.11,0,.19-.03.25-.08.06-.05.1-.12.12-.19.03-.07.05-.16.05-.25v-11.26c0-.1-.02-.18-.05-.25-.02-.06-.06-.12-.12-.17-.06-.05-.14-.08-.25-.08v-.2h3.39c.59,0,1.18.02,1.79.05.61.04,1.16.16,1.66.36.5.21.91.53,1.22.98.31.45.47,1.09.47,1.92,0,.61-.08,1.12-.24,1.53-.16.4-.39.73-.67.98-.28.25-.61.43-.97.54-.36.11-.75.19-1.16.23l3.29,5.47ZM995.27,685.19c.17,0,.42-.02.74-.05.32-.04.64-.15.95-.33.31-.19.59-.48.82-.89.23-.41.35-.99.35-1.75s-.1-1.32-.28-1.73c-.19-.4-.44-.7-.74-.9-.3-.2-.65-.32-1.03-.35-.38-.04-.77-.05-1.16-.05h-1.81v6.07h2.15Z"/>
      </g>
    </g>
  </g>
</svg>